<svg xmlns="http://www.w3.org/2000/svg" viewBox="0 0 1619.05 656"><defs><style>.cls-1{fill:#ef4631;}.cls-2{fill:#fff;}</style></defs><title>tm-logo-horizontal-red-tag</title><g id="white"><rect class="cls-1" width="1620" height="656"/><path class="cls-2" d="M232,148.09a6.61,6.61,0,0,0,1.84,5.57l92.92,92.92a6.59,6.59,0,1,0,9.32-9.32l-92.91-92.92a6.6,6.6,0,0,0-5.58-1.85L153,57.9a4,4,0,0,0-5.6,5.59Z"/><path class="cls-2" d="M411,150.48a4,4,0,0,0,5.59,0l87.65-87.65a4,4,0,1,0-5.59-5.59l-84.85,84.85L329.64,57.9a4,4,0,0,0-5.59,5.59Z"/><path class="cls-2" d="M592.93,144.89l-95.56,95.55A4,4,0,1,0,503,246l95.56-95.55a4,4,0,0,0-5.59-5.59Z"/><path class="cls-2" d="M598.52,240.76a4,4,0,0,0-5.59-5.59l-78,78-81.29-81.29,83.55-83.56a9.15,9.15,0,0,0,2.68-6.83l78.61-78.61a4,4,0,0,0-5.59-5.59l-77,76.95a9.22,9.22,0,0,0-11.78,1l-87.94,87.94a19.45,19.45,0,0,0-3.4.38c-.55-.11-1.1-.19-1.65-.26l-83-86a9.2,9.2,0,0,0-7.55-2.74L244,57.9a4,4,0,0,0-5.59,5.59l75.39,75.38a9.18,9.18,0,0,0,1.17,11.26l78,80.79-70.35,70.35L243.29,222a19.68,19.68,0,0,0-13.42-5.77l-81-81a9.18,9.18,0,0,0-9.09-2.29l-75-75a4,4,0,0,0-5.59,5.59l74.69,74.69a9.22,9.22,0,0,0,2,10.09l76.94,76.94a19.78,19.78,0,0,0,2.6,24.76l79.26,79.26-79.26,79.28a19.74,19.74,0,0,0-4.74,20.3l-74.8,74.8a9.23,9.23,0,0,0-1,11.78l-74,74a4,4,0,0,0,2.8,6.75A3.9,3.9,0,0,0,66.37,595L142,519.33l.31,0a9.19,9.19,0,0,0,6.52-2.7L224,441.51a19.7,19.7,0,0,0,19.29-5l79.28-79.27,70.86,70.85-78.25,75.44a9.19,9.19,0,0,0-1.65,11.08L237.4,590.7a4,4,0,1,0,5.59,5.59l77.08-77.08a9.54,9.54,0,0,0,1.51.15,9.23,9.23,0,0,0,6.4-2.59l79.32-76.46a19.73,19.73,0,0,0,19.29-1.25L504.52,517a9.16,9.16,0,0,0,10.09,2l78.32,78.32a4,4,0,0,0,5.59-5.59L519.86,513a9.18,9.18,0,0,0-2.3-9.09l-77.62-77.62,78.82-78.82a22,22,0,0,0,1.69-1.95L592.93,418a4,4,0,0,0,5.59-5.59L524,338a19.72,19.72,0,0,0-3.91-16.9c-.16-.46-.33-.92-.53-1.37ZM415.81,394.52l-65.28-65.29,62.32-62.32,65.29,65.29Z"/><path class="cls-2" d="M498.69,412.44a4,4,0,0,0,0,5.59l89.95,90a4,4,0,0,0,5.59-5.6l-90-89.95A3.94,3.94,0,0,0,498.69,412.44Z"/><path class="cls-2" d="M417.46,498.6a4,4,0,0,0-5.6,0l-93.08,93.09a4,4,0,1,0,5.59,5.59L414.66,507l91.78,91.78a4,4,0,1,0,5.58-5.6Z"/><path class="cls-2" d="M335,411.21a3.16,3.16,0,0,0-.5-.34,6.55,6.55,0,0,0-11-2.93l-89.63,89.62a6.59,6.59,0,0,0-.06,9.24l-86.38,86.37a4,4,0,0,0,5.6,5.6l182-182A3.93,3.93,0,0,0,335,411.21Z"/><path class="cls-2" d="M64.73,507.78,141.53,431a7.22,7.22,0,0,0,.8.08,6.57,6.57,0,0,0,4.66-1.93l96.22-96.21a6.61,6.61,0,0,0,0-9.33L153.58,234a6.46,6.46,0,0,0-2.69-1.61L62.75,144.22a4,4,0,1,0-5.6,5.6l85.9,85.88a6.55,6.55,0,0,0,1.21,7.58l85,85L137.67,419.8a6.58,6.58,0,0,0-1.84,5.68L59.14,502.19a4,4,0,1,0,5.59,5.59Z"/><path class="cls-2" d="M59.52,411.93a4,4,0,0,0,5.59,5.59L150,332.62a4,4,0,0,0,0-5.59L62.75,239.78a4,4,0,1,0-5.6,5.59l84.46,84.46Z"/><path class="cls-2" d="M736.25,149.2V122.1H836.62v27.1H802.38v91.53H770.49V149.2Z"/><path class="cls-2" d="M849.6,240.73V122.1h30v40.65a30.49,30.49,0,0,1,11.56-9.12,34.9,34.9,0,0,1,14.07-2.8q13.44,0,20.8,8t7.36,23.57v58.34h-30V187.26c0-4.54-.85-7.63-2.55-9.25s-4.13-2.43-7.27-2.43a13.85,13.85,0,0,0-10,3.81,14.22,14.22,0,0,0-2.92,4.18,16.46,16.46,0,0,0-1,6.61v50.55Z"/><path class="cls-2" d="M950.79,143.85V122.1h30.35v21.75Zm.16,96.88V153.5h30v87.23Z"/><path class="cls-2" d="M999.23,240.73V153.5h29.21v10.31a32.12,32.12,0,0,1,11.89-10,34.47,34.47,0,0,1,14.56-3q13.44,0,20.8,7.91t7.36,23.65v58.34h-30V187.26c0-4.54-.85-7.63-2.56-9.25s-4.12-2.43-7.26-2.43a13.85,13.85,0,0,0-10,3.81,14.22,14.22,0,0,0-2.92,4.18,16.46,16.46,0,0,0-1,6.61v50.55Z"/><path class="cls-2" d="M1100.58,240.73V122.1H1130V180l27.42-26.54h33.76l-30.76,29.38,33.27,57.85h-31.81l-21.9-39.92L1130,210v30.75Z"/><path class="cls-2" d="M1203.07,143.85V122.1h30.34v21.75Zm.16,96.88V153.5h30v87.23Z"/><path class="cls-2" d="M1251.51,240.73V153.5h29.21v10.31a32.09,32.09,0,0,1,11.88-10,34.52,34.52,0,0,1,14.57-3q13.42,0,20.79,7.91t7.37,23.65v58.34h-30V187.26c0-4.54-.86-7.63-2.56-9.25s-4.13-2.43-7.26-2.43a13.84,13.84,0,0,0-10,3.81,14,14,0,0,0-2.92,4.18,16.27,16.27,0,0,0-1.06,6.61v50.55Z"/><path class="cls-2" d="M1350.34,195.46a63.69,63.69,0,0,1,2.56-18.9,39.62,39.62,0,0,1,7.38-14,32.1,32.1,0,0,1,11.56-8.74,36.53,36.53,0,0,1,15-3q15.41,0,23.77,10.95v-8.44h29.21v76.6q0,22.65-10.69,33.76t-33.94,11.12q-19.8,0-29.94-7.92t-11.44-22.84h29.37a10.42,10.42,0,0,0,3.41,6.65q2.76,2.35,8.93,2.36a16.69,16.69,0,0,0,7.46-1.42,9.58,9.58,0,0,0,4.34-4.33,20.63,20.63,0,0,0,2-7.12,84.08,84.08,0,0,0,.49-9.71v-3.64q-9,10.4-24.59,10.4-16.79,0-25.84-10.94T1350.34,195.46Zm30.43-1.55q0,10,4.06,14.55a13.29,13.29,0,0,0,10.38,4.52,13.44,13.44,0,0,0,11.12-5.21q3.5-4.16,3.49-12.47v-2.2a31.86,31.86,0,0,0-.89-8.31,13.9,13.9,0,0,0-2.6-5.22,11.88,11.88,0,0,0-4.83-3.66,15.88,15.88,0,0,0-6.12-1.15,13.57,13.57,0,0,0-10.47,4.53Q1380.77,183.81,1380.77,193.91Z"/><path class="cls-2" d="M743.39,393.47V274.84h37l25.43,79.44,25.67-79.44h36.85V393.47h-30V328.15l-21.21,65.32H793.88l-21.12-65.64v65.64Z"/><path class="cls-2" d="M883.44,368.75a24.16,24.16,0,0,1,3.25-13,25.23,25.23,0,0,1,8.92-8.57,43.26,43.26,0,0,1,13.31-4.85,115.71,115.71,0,0,1,16.47-2l13.07-.74v-3.33c0-4.14-1.05-7-3.13-8.58a12.85,12.85,0,0,0-8-2.37q-10.3,0-11.77,8.31l-27.1-2.1q2.35-14.14,12.46-21t27.71-6.9q11,0,18.38,2.59A30.46,30.46,0,0,1,959,313.38a27.09,27.09,0,0,1,6.49,11.2,50.84,50.84,0,0,1,2,14.69v54.2H939.35V383.39a41.05,41.05,0,0,1-11.6,9.2,31.9,31.9,0,0,1-14.85,3.24,39.75,39.75,0,0,1-11.16-1.55,25.9,25.9,0,0,1-9.37-4.89,24.37,24.37,0,0,1-6.49-8.4A27.92,27.92,0,0,1,883.44,368.75Zm29-2.21q0,4,2.55,5.79t7.27,1.75a17.64,17.64,0,0,0,11.52-3.7q4.54-3.69,4.54-11v-2.82l-9.65.46q-9.5.47-12.86,3A7.81,7.81,0,0,0,912.41,366.54Z"/><path class="cls-2" d="M981.87,350.71a60.86,60.86,0,0,1,3-19.75,40.72,40.72,0,0,1,8.64-14.83,37.28,37.28,0,0,1,14-9.31,51.67,51.67,0,0,1,19-3.25,47.53,47.53,0,0,1,16.63,2.6,34.7,34.7,0,0,1,11.69,7,31.88,31.88,0,0,1,7.38,10.4,40.5,40.5,0,0,1,3.33,12.59L1036.72,339a17.53,17.53,0,0,0-3.16-8.07c-1.68-2.27-4.33-3.42-8-3.42a10.82,10.82,0,0,0-10.07,5.66q-3.24,5.67-3.24,16.82,0,10.51,3,16.37t10.27,5.86q10.46,0,11.76-12.33h29.05a55.51,55.51,0,0,1-3.45,14.69,31.37,31.37,0,0,1-7.63,11.48,34.82,34.82,0,0,1-12.41,7.42,50.91,50.91,0,0,1-17.32,2.68,51.82,51.82,0,0,1-19.64-3.4,35.86,35.86,0,0,1-13.59-9.31,38.64,38.64,0,0,1-7.87-14.38A61.33,61.33,0,0,1,981.87,350.71Z"/><path class="cls-2" d="M1080.21,393.47V274.84h30V315.5a30.5,30.5,0,0,1,11.56-9.13,34.91,34.91,0,0,1,14.08-2.8q13.42,0,20.79,8t7.37,23.57v58.34h-30V340c0-4.54-.85-7.63-2.55-9.25s-4.13-2.43-7.26-2.43a13.86,13.86,0,0,0-10,3.81,14.41,14.41,0,0,0-2.92,4.18,16.46,16.46,0,0,0-1,6.61v50.55Z"/><path class="cls-2" d="M1181.4,296.59V274.84h30.35v21.75Zm.16,96.88V306.24h30v87.23Z"/><path class="cls-2" d="M1229.84,393.47V306.24h29.22v10.31a32,32,0,0,1,11.88-10,34.47,34.47,0,0,1,14.56-3q13.44,0,20.8,7.91t7.37,23.65v58.34h-30V340c0-4.54-.85-7.63-2.55-9.25s-4.13-2.43-7.27-2.43a13.85,13.85,0,0,0-10,3.81,14.22,14.22,0,0,0-2.92,4.18,16.46,16.46,0,0,0-1.05,6.61v50.55Z"/><path class="cls-2" d="M1328.68,351.28a60.76,60.76,0,0,1,3.16-20.37,41.65,41.65,0,0,1,8.89-15,37.31,37.31,0,0,1,14-9.21,51.35,51.35,0,0,1,18.54-3.16,48.88,48.88,0,0,1,18.1,3.08,35.42,35.42,0,0,1,13.1,8.8,37.07,37.07,0,0,1,8,13.88,58.08,58.08,0,0,1,2.68,18.14v9.41h-57.54q.81,9.4,4.22,13.47c2.28,2.7,5.87,4.06,10.8,4.06q11.26,0,13.79-9h28.08q-2.68,15.42-13.31,23.08t-28.24,7.67q-21.92,0-33.07-11.64T1328.68,351.28Zm28.88-11.52h29.78q-.31-7.69-3.73-11.07t-10.39-3.38q-7.62,0-11.31,3.85C1359.44,331.72,1358,335.26,1357.56,339.76Z"/><path class="cls-2" d="M1426.13,365.56h28.48q1,5,4.63,6.93a19.94,19.94,0,0,0,9.33,1.92c3.89,0,6.67-.54,8.32-1.62a5.56,5.56,0,0,0,2.47-5,5.49,5.49,0,0,0-1.74-4.22q-1.75-1.62-6.78-2.4l-10.14-1.66q-17-2.76-24.83-9T1428,333q0-14.49,10.22-22t28.81-7.49a61.28,61.28,0,0,1,17.8,2.24,35.38,35.38,0,0,1,12.12,6.13,27.29,27.29,0,0,1,7.3,8.92,38.72,38.72,0,0,1,3.51,10.44l-27.91,2.76a11,11,0,0,0-3.81-6.54q-2.85-2.2-9-2.21-5.85,0-8.32,1.86a5.55,5.55,0,0,0-2.47,4.6,4.58,4.58,0,0,0,2.07,4c1.38.95,4,1.76,7.91,2.45l10,1.73a79.65,79.65,0,0,1,15.6,4,34.69,34.69,0,0,1,10,5.67,18.27,18.27,0,0,1,5.34,7.53,27.37,27.37,0,0,1,1.6,9.57q0,14.58-9.88,22t-30,7.41a82.6,82.6,0,0,1-15.45-1.42,40.63,40.63,0,0,1-13.39-4.91,28.74,28.74,0,0,1-9.66-9.37Q1426.63,374.57,1426.13,365.56Z"/><path class="cls-2" d="M788,500.74a29,29,0,0,1-15.13,8.65,45,45,0,0,1-10.62,1h-26V444.08h21.14c2.07,0,4,0,6,.09,2.82.19,13.91.47,22,7.15a22.48,22.48,0,0,1,5.26,6c2.35,3.66,5,9.58,5,19.36C795.63,489.18,791.59,496.61,788,500.74Zm-12.78-37.21a13.55,13.55,0,0,0-6.48-4.51c-3.1-1-5.92-.94-9.12-.94H753v39H758c4.89,0,10.53-.29,14.85-3.48,3.38-2.54,6.11-7.33,6.11-16.35C779,472.18,778.44,467.57,775.24,463.53Z"/><path class="cls-2" d="M833.68,510.42V506c-1,.75-2,1.41-3,2.07a21.1,21.1,0,0,1-12,3.66c-8.84,0-12.88-4.79-14.47-8.08a15.54,15.54,0,0,1-1.6-6.86c0-8.83,7.89-13.06,10-14,3.67-1.59,10.34-2.91,19.64-4.6v-2.73c0-1.69-.28-5.92-5.54-5.92-4.23,0-6.2,2-7,3.58a8.33,8.33,0,0,0-.66,2.16H804.65c.18-2,.28-6.2,3.94-9.87,4-4,9.4-4.7,11.09-5a45.92,45.92,0,0,1,6.3-.38c6.86,0,16.16,1.6,19.45,8.65a12.08,12.08,0,0,1,1,5.45v28.66c0,4.23.19,5.82,1.41,7.61ZM823,490a11.79,11.79,0,0,0-1.69.66c-3.57,1.5-4.51,3.57-4.51,5.45a5.74,5.74,0,0,0,.56,2.25,5.54,5.54,0,0,0,5,2.73,10.22,10.22,0,0,0,5.55-2c4.22-3,4.41-7.61,4.41-12.21Z"/><path class="cls-2" d="M875.68,471.42v22c0,2-.09,3.1.38,3.95.84,1.6,3.1,1.6,3.38,1.6,1.69,0,3.38-.1,5.07-.1V510a44.14,44.14,0,0,1-7.61.75c-1,0-2.07,0-3-.09-1.31-.09-5.63,0-8.92-3-3.76-3.28-3.57-8.27-3.57-12.77V471.33h-7.14V462.5h7.14V447.18h14.28v15.41h9.58v8.83Z"/><path class="cls-2" d="M921.72,510.42V506c-1,.75-2,1.41-3,2.07a21.1,21.1,0,0,1-12,3.66c-8.84,0-12.88-4.79-14.48-8.08a15.66,15.66,0,0,1-1.59-6.86c0-8.83,7.89-13.06,10-14,3.67-1.59,10.34-2.91,19.64-4.6v-2.73c0-1.69-.28-5.92-5.54-5.92-4.23,0-6.21,2-7,3.58a8,8,0,0,0-.65,2.16H892.68c.19-2,.29-6.2,4-9.87,4-4,9.4-4.7,11.09-5a45.87,45.87,0,0,1,6.29-.38c6.86,0,16.17,1.6,19.45,8.65a11.92,11.92,0,0,1,1,5.45v28.66c0,4.23.19,5.82,1.41,7.61ZM911,490a11.35,11.35,0,0,0-1.69.66c-3.57,1.5-4.51,3.57-4.51,5.45a5.74,5.74,0,0,0,.56,2.25,5.51,5.51,0,0,0,5,2.73,10.14,10.14,0,0,0,5.54-2c4.23-3,4.42-7.61,4.42-12.21Z"/><path class="cls-2" d="M1027.33,499.24c-5.73,10.43-17.67,11.84-20.86,12.21a52.23,52.23,0,0,1-6.67.47c-13.16,0-20.58-4.41-25-8a39.78,39.78,0,0,1-5.26-5.55l12.59-7.89a29.55,29.55,0,0,0,2.92,2.82,26.75,26.75,0,0,0,16.25,5.54,18.25,18.25,0,0,0,5.17-.66c.47-.09,7-2,7-7,0-6.11-8.84-6.3-14.76-7.14a81.25,81.25,0,0,1-9.39-1.7c-4.79-1.22-9.21-3-12.5-6.95a15,15,0,0,1-2.82-4.89,20.75,20.75,0,0,1-.84-5.82,39,39,0,0,1,.37-4.61,18.29,18.29,0,0,1,5.73-10.61c3.29-3.1,9.78-7,20.68-7a38.52,38.52,0,0,1,21.89,6.58,64.53,64.53,0,0,1,7.33,5.92L1017,463.72c-3.66-3.57-6.2-5.64-11.18-7.24a26.24,26.24,0,0,0-6.2-.94c-6.77,0-9.87,3.95-9.87,7a5,5,0,0,0,1.41,3.48c2.26,2.44,5.92,2.35,12.12,3.29,3.76.56,7.43,1.31,11.09,2.16,2.35.47,10.9,2.16,14.29,10.24a19.87,19.87,0,0,1,1.31,7.14A21.38,21.38,0,0,1,1027.33,499.24Z"/><path class="cls-2" d="M1079.19,503.56a24.06,24.06,0,0,1-18.41,8.46,26.09,26.09,0,0,1-11.47-2.73c-9.21-4.51-12.87-13.25-12.87-23a30.45,30.45,0,0,1,2.44-12.4c5.55-12.88,17.67-13.91,22.18-13.91a23.72,23.72,0,0,1,19.07,9c.57.75.94,1.32,1.88,2.82l-10.71,6.11a16.35,16.35,0,0,0-1.6-2.82,10.48,10.48,0,0,0-8-4,8.51,8.51,0,0,0-5.27,1.69c-5,3.76-5.16,12.12-5.16,13.06,0,4.23,1.41,9.68,4.69,12.4a9.61,9.61,0,0,0,6.21,2.35,10,10,0,0,0,8.08-4.41,12.35,12.35,0,0,0,1.41-2.92l10.9,5.64A43.58,43.58,0,0,1,1079.19,503.56Z"/><path class="cls-2" d="M1090.46,455.26V444.08h14.38v11.18Zm0,55.16V461.37h14.38v49.05Z"/><path class="cls-2" d="M1129.18,488.9a11.89,11.89,0,0,0,.18,2.91c1.13,5.74,5.17,9.31,11,9.31a13.77,13.77,0,0,0,4.7-.85c4.88-1.69,7-6.67,7.7-7.89l10.9,5.64a57,57,0,0,1-4.13,5.54c-7.24,8-16.64,8.64-20.3,8.64a29.63,29.63,0,0,1-8.83-1.31c-10.9-3.38-16-13-16-24.06,0-3,.19-12.12,6.3-19.16,3-3.39,8.17-7.8,18.89-7.8,3.28,0,13.06.37,19.16,8.92,5.55,7.61,5.36,17.76,5.45,20.11Zm14.75-17.76a9.6,9.6,0,0,0-4.42-.94,9.89,9.89,0,0,0-9.11,5.92,16.78,16.78,0,0,0-1.13,3.76h20C1149.1,478.28,1148.81,473.3,1143.93,471.14Z"/><path class="cls-2" d="M1202,510.42V482.7c0-3.29-.09-5.73-.56-7.05-.66-1.69-2.44-3.94-6.58-3.94a7.72,7.72,0,0,0-4.88,1.5c-2.45,1.88-2.73,4.89-2.73,10.71v26.5h-14.47v-49h14.66v4.23a16.84,16.84,0,0,1,2.26-2.16,21,21,0,0,1,20.29-1.41c6,3.2,6.48,8.74,6.48,14.75v33.55Z"/><path class="cls-2" d="M1268.8,503.56a24.08,24.08,0,0,1-18.42,8.46,26.05,26.05,0,0,1-11.46-2.73c-9.21-4.51-12.88-13.25-12.88-23a30.51,30.51,0,0,1,2.45-12.4C1234,461,1246.15,460,1250.66,460a23.74,23.74,0,0,1,19.08,9c.56.75.94,1.32,1.88,2.82l-10.71,6.11a17.08,17.08,0,0,0-1.6-2.82,10.5,10.5,0,0,0-8-4,8.49,8.49,0,0,0-5.26,1.69c-5,3.76-5.17,12.12-5.17,13.06,0,4.23,1.41,9.68,4.7,12.4a9.61,9.61,0,0,0,6.2,2.35,10,10,0,0,0,8.08-4.41,12,12,0,0,0,1.41-2.92l10.9,5.64A42.18,42.18,0,0,1,1268.8,503.56Z"/><path class="cls-2" d="M1291.35,488.9a11.89,11.89,0,0,0,.18,2.91c1.13,5.74,5.17,9.31,11,9.31a13.77,13.77,0,0,0,4.7-.85c4.88-1.69,7-6.67,7.7-7.89l10.9,5.64a57,57,0,0,1-4.13,5.54c-7.24,8-16.64,8.64-20.3,8.64a29.63,29.63,0,0,1-8.83-1.31c-10.9-3.38-16-13-16-24.06,0-3,.19-12.12,6.3-19.16,3-3.39,8.17-7.8,18.89-7.8,3.28,0,13.06.37,19.16,8.92,5.55,7.61,5.36,17.76,5.45,20.11Zm14.75-17.76a9.6,9.6,0,0,0-4.42-.94,9.89,9.89,0,0,0-9.11,5.92,16.78,16.78,0,0,0-1.13,3.76h20C1311.27,478.28,1311,473.3,1306.1,471.14Z"/></g></svg>